<svg width="56" height="49" viewBox="0 0 56 49" fill="none" xmlns="http://www.w3.org/2000/svg">
<rect width="56" height="49"/>
<mask id="path-1-inside-1_0_1" fill="white">
<path d="M1.35486 10.0416C2.22374 8.07656 3.47658 6.29588 5.04324 4.79921C6.61109 3.29809 8.45961 2.10516 10.4883 1.28531C12.5919 0.431799 14.8482 -0.00507639 17.1261 4.45023e-05C20.3218 4.45023e-05 23.4398 0.854778 26.1494 2.46927C26.7976 2.85549 27.4134 3.27969 27.9968 3.74188C28.5802 3.27969 29.196 2.85549 29.8442 2.46927C32.5538 0.854778 35.6717 4.45023e-05 38.8675 4.45023e-05C41.1687 4.45023e-05 43.3986 0.430577 45.5053 1.28531C47.5407 2.10839 49.3752 3.29235 50.9503 4.79921C52.5191 6.29419 53.7722 8.07529 54.6387 10.0416C55.5398 12.0866 56 14.2583 56 16.4932C56 18.6016 55.5592 20.7986 54.6841 23.0335C53.9516 24.9013 52.9015 26.8387 51.5597 28.7951C49.4335 31.8911 46.51 35.1201 42.88 38.3934C36.8645 43.8194 30.9073 47.5675 30.6545 47.7195L29.1182 48.6818C28.4376 49.106 27.5625 49.106 26.8819 48.6818L25.3456 47.7195C25.0928 47.5612 19.1421 43.8194 13.1201 38.3934C9.49005 35.1201 6.56656 31.8911 4.44039 28.7951C3.09857 26.8387 2.04197 24.9013 1.31596 23.0335C0.440865 20.7986 7.02805e-05 18.6016 7.02805e-05 16.4932C-0.00641194 14.2583 0.453828 12.0866 1.35486 10.0416V10.0416Z"/>
</mask>
<path d="M1.35486 10.0416C2.22374 8.07656 3.47658 6.29588 5.04324 4.79921C6.61109 3.29809 8.45961 2.10516 10.4883 1.28531C12.5919 0.431799 14.8482 -0.00507639 17.1261 4.45023e-05C20.3218 4.45023e-05 23.4398 0.854778 26.1494 2.46927C26.7976 2.85549 27.4134 3.27969 27.9968 3.74188C28.5802 3.27969 29.196 2.85549 29.8442 2.46927C32.5538 0.854778 35.6717 4.45023e-05 38.8675 4.45023e-05C41.1687 4.45023e-05 43.3986 0.430577 45.5053 1.28531C47.5407 2.10839 49.3752 3.29235 50.9503 4.79921C52.5191 6.29419 53.7722 8.07529 54.6387 10.0416C55.5398 12.0866 56 14.2583 56 16.4932C56 18.6016 55.5592 20.7986 54.6841 23.0335C53.9516 24.9013 52.9015 26.8387 51.5597 28.7951C49.4335 31.8911 46.51 35.1201 42.88 38.3934C36.8645 43.8194 30.9073 47.5675 30.6545 47.7195L29.1182 48.6818C28.4376 49.106 27.5625 49.106 26.8819 48.6818L25.3456 47.7195C25.0928 47.5612 19.1421 43.8194 13.1201 38.3934C9.49005 35.1201 6.56656 31.8911 4.44039 28.7951C3.09857 26.8387 2.04197 24.9013 1.31596 23.0335C0.440865 20.7986 7.02805e-05 18.6016 7.02805e-05 16.4932C-0.00641194 14.2583 0.453828 12.0866 1.35486 10.0416V10.0416Z" fill="#F78888" stroke="white" stroke-width="4" mask="url(#path-1-inside-1_0_1)"/>
</svg>